<?xml version="1.0" encoding="UTF-8" standalone="no"?>
<!DOCTYPE svg PUBLIC "-//W3C//DTD SVG 1.1//EN"
 "http://www.w3.org/Graphics/SVG/1.1/DTD/svg11.dtd">
<!-- Generated by graphviz version 2.40.1 (20161225.0304)
 -->
<!-- Title: state transitions Pages: 1 -->
<svg width="192pt" height="364pt"
 viewBox="0.00 0.00 191.67 364.00" xmlns="http://www.w3.org/2000/svg" xmlns:xlink="http://www.w3.org/1999/xlink">
<g id="graph0" class="graph" transform="scale(1 1) rotate(0) translate(4 360)">
<title>state transitions</title>
<polygon fill="#ffffff" stroke="transparent" points="-4,4 -4,-360 187.674,-360 187.674,4 -4,4"/>
<g id="clust1" class="cluster state regular">
<title>cluster_state</title>
<path fill="none" stroke="#000000" stroke-width="2" d="M20,-8C20,-8 142,-8 142,-8 148,-8 154,-14 154,-20 154,-20 154,-336 154,-336 154,-342 148,-348 142,-348 142,-348 20,-348 20,-348 14,-348 8,-342 8,-336 8,-336 8,-20 8,-20 8,-14 14,-8 20,-8"/>
<text text-anchor="start" x="67.9944" y="-329.2" font-family="Helvetica,sans-Serif" font-size="12.00" fill="#000000">state</text>
</g>
<!-- state -->
<!-- STATE_IDLE -->
<g id="node2" class="node state regular">
<title>STATE_IDLE</title>
<polygon fill="#ffffff" fill-opacity="0.003922" stroke="transparent" stroke-width="2" points="118,-310 24,-310 24,-274 118,-274 118,-310"/>
<text text-anchor="start" x="34.994" y="-288.2" font-family="Helvetica,sans-Serif" font-size="12.00" fill="#000000">STATE_IDLE</text>
<path fill="none" stroke="#000000" stroke-width="2" d="M36.3333,-275C36.3333,-275 105.6667,-275 105.6667,-275 111.3333,-275 117,-280.6667 117,-286.3333 117,-286.3333 117,-297.6667 117,-297.6667 117,-303.3333 111.3333,-309 105.6667,-309 105.6667,-309 36.3333,-309 36.3333,-309 30.6667,-309 25,-303.3333 25,-297.6667 25,-297.6667 25,-286.3333 25,-286.3333 25,-280.6667 30.6667,-275 36.3333,-275"/>
</g>
<!-- STATE_START -->
<g id="node3" class="node state regular">
<title>STATE_START</title>
<polygon fill="#ffffff" fill-opacity="0.003922" stroke="transparent" stroke-width="2" points="122,-228 16,-228 16,-192 122,-192 122,-228"/>
<text text-anchor="start" x="26.6646" y="-206.2" font-family="Helvetica,sans-Serif" font-size="12.00" fill="#000000">STATE_START</text>
<path fill="none" stroke="#000000" stroke-width="2" d="M28.3333,-193C28.3333,-193 109.6667,-193 109.6667,-193 115.3333,-193 121,-198.6667 121,-204.3333 121,-204.3333 121,-215.6667 121,-215.6667 121,-221.3333 115.3333,-227 109.6667,-227 109.6667,-227 28.3333,-227 28.3333,-227 22.6667,-227 17,-221.3333 17,-215.6667 17,-215.6667 17,-204.3333 17,-204.3333 17,-198.6667 22.6667,-193 28.3333,-193"/>
</g>
<!-- STATE_IDLE&#45;&gt;STATE_START -->
<g id="edge1" class="edge transition">
<title>STATE_IDLE&#45;&gt;STATE_START</title>
<path fill="none" stroke="#000000" d="M70.5561,-273.8015C70.3024,-263.3976 69.9786,-250.1215 69.6921,-238.3768"/>
<polygon fill="#000000" stroke="#000000" points="73.1855,-238.0592 69.4426,-228.1476 66.1876,-238.23 73.1855,-238.0592"/>
<text text-anchor="start" x="70" y="-248" font-family="Helvetica,sans-Serif" font-size="10.00" fill="#000000">wr_en &#160;&#160;</text>
</g>
<!-- STATE_DATA -->
<g id="node4" class="node state regular">
<title>STATE_DATA</title>
<polygon fill="#ffffff" fill-opacity="0.003922" stroke="transparent" stroke-width="2" points="115.5,-146 16.5,-146 16.5,-110 115.5,-110 115.5,-146"/>
<text text-anchor="start" x="27.83" y="-124.2" font-family="Helvetica,sans-Serif" font-size="12.00" fill="#000000">STATE_DATA</text>
<path fill="none" stroke="#000000" stroke-width="2" d="M28.8333,-111C28.8333,-111 103.1667,-111 103.1667,-111 108.8333,-111 114.5,-116.6667 114.5,-122.3333 114.5,-122.3333 114.5,-133.6667 114.5,-133.6667 114.5,-139.3333 108.8333,-145 103.1667,-145 103.1667,-145 28.8333,-145 28.8333,-145 23.1667,-145 17.5,-139.3333 17.5,-133.6667 17.5,-133.6667 17.5,-122.3333 17.5,-122.3333 17.5,-116.6667 23.1667,-111 28.8333,-111"/>
</g>
<!-- STATE_START&#45;&gt;STATE_DATA -->
<g id="edge2" class="edge transition">
<title>STATE_START&#45;&gt;STATE_DATA</title>
<path fill="none" stroke="#000000" d="M60.4358,-191.8528C58.3369,-186.5403 56.3889,-180.6416 55.326,-175 54.1747,-168.8894 54.5913,-162.366 55.7624,-156.1843"/>
<polygon fill="#000000" stroke="#000000" points="59.2195,-156.792 58.3023,-146.2369 52.4371,-155.0602 59.2195,-156.792"/>
<text text-anchor="start" x="55" y="-166" font-family="Helvetica,sans-Serif" font-size="10.00" fill="#000000">clken &#160;&#160;</text>
</g>
<!-- STATE_STOP -->
<g id="node5" class="node state regular">
<title>STATE_STOP</title>
<polygon fill="#ffffff" fill-opacity="0.003922" stroke="transparent" stroke-width="2" points="131,-52 31,-52 31,-16 131,-16 131,-52"/>
<text text-anchor="start" x="41.994" y="-30.2" font-family="Helvetica,sans-Serif" font-size="12.00" fill="#000000">STATE_STOP</text>
<path fill="none" stroke="#000000" stroke-width="2" d="M43.3333,-17C43.3333,-17 118.6667,-17 118.6667,-17 124.3333,-17 130,-22.6667 130,-28.3333 130,-28.3333 130,-39.6667 130,-39.6667 130,-45.3333 124.3333,-51 118.6667,-51 118.6667,-51 43.3333,-51 43.3333,-51 37.6667,-51 32,-45.3333 32,-39.6667 32,-39.6667 32,-28.3333 32,-28.3333 32,-22.6667 37.6667,-17 43.3333,-17"/>
</g>
<!-- STATE_DATA&#45;&gt;STATE_STOP -->
<g id="edge3" class="edge transition">
<title>STATE_DATA&#45;&gt;STATE_STOP</title>
<path fill="none" stroke="#000000" d="M61.8026,-109.9188C59.7718,-98.1035 58.4345,-82.4306 61.866,-69 62.511,-66.4755 63.3797,-63.9371 64.3925,-61.4433"/>
<polygon fill="#000000" stroke="#000000" points="67.6714,-62.7003 68.8436,-52.1705 61.3608,-59.671 67.6714,-62.7003"/>
<text text-anchor="start" x="61" y="-84" font-family="Helvetica,sans-Serif" font-size="10.00" fill="#000000">bitpos == 3&#39;h7 &#160;&#160;</text>
<text text-anchor="start" x="61" y="-72" font-family="Helvetica,sans-Serif" font-size="10.00" fill="#000000">clken &#160;&#160;</text>
</g>
<!-- STATE_STOP&#45;&gt;STATE_IDLE -->
<g id="edge4" class="edge transition">
<title>STATE_STOP&#45;&gt;STATE_IDLE</title>
<path fill="none" stroke="#000000" d="M118.7544,-52.0172C124.8834,-56.6686 130.3953,-62.2997 134,-69 167.4812,-131.2333 155.7792,-161.1039 133,-228 127.8545,-243.111 116.7839,-256.4383 105.4007,-266.9648"/>
<polygon fill="#000000" stroke="#000000" points="102.7942,-264.5927 97.539,-273.7924 107.3842,-269.8778 102.7942,-264.5927"/>
<text text-anchor="start" x="152" y="-166" font-family="Helvetica,sans-Serif" font-size="10.00" fill="#000000">clken &#160;&#160;</text>
</g>
</g>
</svg>
