<?xml version="1.0" encoding="UTF-8" standalone="no"?>
<!DOCTYPE svg PUBLIC "-//W3C//DTD SVG 1.1//EN"
 "http://www.w3.org/Graphics/SVG/1.1/DTD/svg11.dtd">
<!-- Generated by graphviz version 2.40.1 (20161225.0304)
 -->
<!-- Title: state transitions Pages: 1 -->
<svg width="377pt" height="270pt"
 viewBox="0.00 0.00 377.00 270.00" xmlns="http://www.w3.org/2000/svg" xmlns:xlink="http://www.w3.org/1999/xlink">
<g id="graph0" class="graph" transform="scale(1 1) rotate(0) translate(4 266)">
<title>state transitions</title>
<polygon fill="#ffffff" stroke="transparent" points="-4,4 -4,-266 373,-266 373,4 -4,4"/>
<g id="clust1" class="cluster state regular">
<title>cluster_state</title>
<path fill="none" stroke="#000000" stroke-width="2" d="M20,-8C20,-8 349,-8 349,-8 355,-8 361,-14 361,-20 361,-20 361,-242 361,-242 361,-248 355,-254 349,-254 349,-254 20,-254 20,-254 14,-254 8,-248 8,-242 8,-242 8,-20 8,-20 8,-14 14,-8 20,-8"/>
<text text-anchor="start" x="171.4944" y="-235.2" font-family="Helvetica,sans-Serif" font-size="12.00" fill="#000000">state</text>
</g>
<!-- state -->
<!-- RX_STATE_START -->
<g id="node2" class="node state regular">
<title>RX_STATE_START</title>
<polygon fill="#ffffff" fill-opacity="0.003922" stroke="transparent" stroke-width="2" points="198,-216 68,-216 68,-180 198,-180 198,-216"/>
<text text-anchor="start" x="78.9964" y="-194.2" font-family="Helvetica,sans-Serif" font-size="12.00" fill="#000000">RX_STATE_START</text>
<path fill="none" stroke="#000000" stroke-width="2" d="M80.3333,-181C80.3333,-181 185.6667,-181 185.6667,-181 191.3333,-181 197,-186.6667 197,-192.3333 197,-192.3333 197,-203.6667 197,-203.6667 197,-209.3333 191.3333,-215 185.6667,-215 185.6667,-215 80.3333,-215 80.3333,-215 74.6667,-215 69,-209.3333 69,-203.6667 69,-203.6667 69,-192.3333 69,-192.3333 69,-186.6667 74.6667,-181 80.3333,-181"/>
</g>
<!-- RX_STATE_DATA -->
<g id="node3" class="node state regular">
<title>RX_STATE_DATA</title>
<polygon fill="#ffffff" fill-opacity="0.003922" stroke="transparent" stroke-width="2" points="138,-134 16,-134 16,-98 138,-98 138,-134"/>
<text text-anchor="start" x="26.6618" y="-112.2" font-family="Helvetica,sans-Serif" font-size="12.00" fill="#000000">RX_STATE_DATA</text>
<path fill="none" stroke="#000000" stroke-width="2" d="M28.3333,-99C28.3333,-99 125.6667,-99 125.6667,-99 131.3333,-99 137,-104.6667 137,-110.3333 137,-110.3333 137,-121.6667 137,-121.6667 137,-127.3333 131.3333,-133 125.6667,-133 125.6667,-133 28.3333,-133 28.3333,-133 22.6667,-133 17,-127.3333 17,-121.6667 17,-121.6667 17,-110.3333 17,-110.3333 17,-104.6667 22.6667,-99 28.3333,-99"/>
</g>
<!-- RX_STATE_START&#45;&gt;RX_STATE_DATA -->
<g id="edge1" class="edge transition">
<title>RX_STATE_START&#45;&gt;RX_STATE_DATA</title>
<path fill="none" stroke="#000000" d="M119.0434,-179.6424C115.1015,-174.3265 110.8594,-168.4787 107.084,-163 102.6244,-156.5283 97.9701,-149.4384 93.6924,-142.7721"/>
<polygon fill="#000000" stroke="#000000" points="96.4628,-140.6059 88.1462,-134.042 90.5543,-144.3596 96.4628,-140.6059"/>
<text text-anchor="start" x="107" y="-154" font-family="Helvetica,sans-Serif" font-size="10.00" fill="#000000">sample == 15 &#160;&#160;</text>
</g>
<!-- RX_STATE_STOP -->
<g id="node4" class="node state regular">
<title>RX_STATE_STOP</title>
<polygon fill="#ffffff" fill-opacity="0.003922" stroke="transparent" stroke-width="2" points="199.5,-52 76.5,-52 76.5,-16 199.5,-16 199.5,-52"/>
<text text-anchor="start" x="87.8258" y="-30.2" font-family="Helvetica,sans-Serif" font-size="12.00" fill="#000000">RX_STATE_STOP</text>
<path fill="none" stroke="#000000" stroke-width="2" d="M88.8333,-17C88.8333,-17 187.1667,-17 187.1667,-17 192.8333,-17 198.5,-22.6667 198.5,-28.3333 198.5,-28.3333 198.5,-39.6667 198.5,-39.6667 198.5,-45.3333 192.8333,-51 187.1667,-51 187.1667,-51 88.8333,-51 88.8333,-51 83.1667,-51 77.5,-45.3333 77.5,-39.6667 77.5,-39.6667 77.5,-28.3333 77.5,-28.3333 77.5,-22.6667 83.1667,-17 88.8333,-17"/>
</g>
<!-- RX_STATE_DATA&#45;&gt;RX_STATE_STOP -->
<g id="edge2" class="edge transition">
<title>RX_STATE_DATA&#45;&gt;RX_STATE_STOP</title>
<path fill="none" stroke="#000000" d="M59.7383,-97.9415C53.242,-88.9168 48.7209,-78.0255 54.718,-69 58.2496,-63.6851 62.7623,-59.1755 67.8551,-55.3495"/>
<polygon fill="#000000" stroke="#000000" points="69.7955,-58.2627 76.2779,-49.8824 65.9844,-52.3911 69.7955,-58.2627"/>
<text text-anchor="start" x="54" y="-72" font-family="Helvetica,sans-Serif" font-size="10.00" fill="#000000">bitpos == 8 &amp;&amp; sample == 15 &#160;&#160;</text>
</g>
<!-- RX_STATE_STOP&#45;&gt;RX_STATE_START -->
<g id="edge3" class="edge transition">
<title>RX_STATE_STOP&#45;&gt;RX_STATE_START</title>
<path fill="none" stroke="#000000" d="M177.7031,-52.1931C183.8446,-56.7873 189.3509,-62.3526 193,-69 195.5664,-73.6752 193.5131,-75.6914 193,-81 189.4279,-117.9595 196.2741,-131.2624 177,-163 174.8942,-166.4675 172.3124,-169.7317 169.4646,-172.7671"/>
<polygon fill="#000000" stroke="#000000" points="166.8447,-170.4263 161.9576,-179.8267 171.6402,-175.5257 166.8447,-170.4263"/>
<text text-anchor="start" x="191" y="-113" font-family="Helvetica,sans-Serif" font-size="10.00" fill="#000000">sample == 15 || (sample &gt;= 8 &amp;&amp; !rx) &#160;&#160;</text>
</g>
</g>
</svg>
